<?xml version="1.0" standalone="no"?>
<!DOCTYPE svg PUBLIC "-//W3C//DTD SVG 20010904//EN"
 "http://www.w3.org/TR/2001/REC-SVG-20010904/DTD/svg10.dtd">
<svg version="1.0" xmlns="http://www.w3.org/2000/svg"
 width="180.000000pt" height="180.000000pt" viewBox="0 0 180.000000 180.000000"
 preserveAspectRatio="xMidYMid meet">
<metadata>
Created by potrace 1.11, written by Peter Selinger 2001-2013
</metadata>
<g transform="translate(0.000000,180.000000) scale(0.100000,-0.100000)"
fill="#000000" stroke="none">
<path d="M589 1666 c-61 -16 -133 -60 -159 -95 -48 -68 -53 -97 -59 -300 l-6
-193 -155 -83 c-133 -70 -158 -87 -173 -118 -16 -31 -16 -39 -4 -69 19 -46 43
-63 89 -63 33 0 46 7 70 34 31 35 31 37 13 126 -9 40 11 63 98 110 l67 37 2
-234 c3 -326 4 -331 11 -353 11 -32 64 -57 133 -63 66 -5 73 0 49 32 -10 13
-15 43 -15 81 0 50 5 69 29 107 16 25 40 53 52 63 18 13 21 18 10 22 -31 12
-101 87 -122 130 -43 88 -27 217 37 300 22 30 111 91 118 82 2 -2 6 -122 10
-265 l6 -261 -25 -17 c-34 -22 -34 -63 0 -76 22 -9 25 -15 25 -64 0 -62 -30
-109 -77 -121 -26 -6 -27 -7 -8 -18 13 -8 112 -14 296 -17 254 -5 279 -7 298
-24 21 -19 29 -56 12 -56 -5 0 -14 6 -20 14 -33 40 -127 21 -150 -30 -30 -66
13 -144 79 -144 84 0 125 67 125 206 0 70 -4 88 -30 139 -25 49 -39 63 -80 84
-47 25 -58 26 -247 30 l-198 3 0 44 c0 43 0 43 26 34 44 -17 165 -23 227 -11
46 8 115 34 158 58 3 2 15 -21 28 -51 30 -72 107 -146 186 -176 46 -17 81 -23
150 -23 99 -1 151 16 213 68 30 25 92 118 92 138 0 16 -29 6 -35 -12 -10 -32
-83 -101 -128 -122 -47 -21 -137 -25 -169 -8 -11 6 -29 31 -40 57 -36 80 -33
446 3 535 21 50 90 65 124 27 18 -20 18 -22 -3 -59 -26 -46 -27 -72 -7 -115
20 -41 63 -66 115 -66 34 0 48 6 76 34 28 28 34 42 34 75 0 111 -103 182 -266
183 -112 1 -198 -28 -266 -91 -15 -13 -29 -23 -31 -20 -1 2 -10 14 -20 26 -18
21 -18 22 27 63 112 103 119 252 13 287 -75 25 -147 -26 -147 -104 0 -49 20
-83 62 -104 41 -21 51 -56 23 -79 -11 -9 -27 -6 -77 19 -94 46 -247 58 -346
27 l-22 -7 0 190 c0 178 1 192 20 211 27 27 90 27 115 0 17 -19 17 -21 -18
-60 -49 -53 -55 -82 -29 -135 60 -123 242 -87 244 49 2 117 -120 197 -301 195
-47 0 -107 -6 -132 -13z m307 -454 c30 -20 38 -61 42 -217 6 -238 -13 -305
-88 -305 -43 0 -68 37 -80 115 -20 141 -7 342 25 391 12 18 24 24 53 24 20 0
42 -4 48 -8z m304 -183 c22 -92 -11 -220 -71 -275 -17 -15 -18 -15 -25 11 -18
74 9 227 52 293 22 33 31 27 44 -29z"/>
</g>
</svg>
